<?xml version="1.0" encoding="UTF-8" ?>
<!DOCTYPE svg PUBLIC "-//W3C//DTD SVG 1.1//EN" "http://www.w3.org/Graphics/SVG/1.1/DTD/svg11.dtd">
<svg width="66pt" height="79pt" viewBox="0 0 66 79" version="1.1" xmlns="http://www.w3.org/2000/svg">
<g id="#b33725ff">
<path fill="#b33725" opacity="1.00" d=" M 0.52 5.95 C 0.41 2.08 4.48 0.07 7.88 0.49 C 7.95 21.42 7.64 42.35 8.03 63.27 C 4.97 62.86 2.07 64.17 0.50 66.87 C 0.46 46.56 0.40 26.25 0.52 5.95 Z" />
</g>
<g id="#de5940ff">
<path fill="#de5940" opacity="1.00" d=" M 7.88 0.49 C 9.81 0.49 11.75 0.52 13.68 0.53 C 13.61 8.15 13.53 15.77 13.71 23.39 C 16.06 21.31 18.36 19.17 20.64 17.01 C 22.79 19.20 24.97 21.35 27.26 23.39 C 27.54 15.78 27.52 8.15 27.37 0.53 C 40.25 0.55 53.12 0.49 66.00 0.56 L 66.00 1.27 C 64.41 4.62 65.07 8.38 64.99 11.94 C 64.99 27.29 65.01 42.64 64.97 57.99 C 64.99 59.72 65.18 61.43 65.43 63.15 C 46.30 63.52 27.16 63.27 8.03 63.27 C 7.64 42.35 7.95 21.42 7.88 0.49 Z" />
</g>
<g id="#e88a7aff">
<path fill="#e88a7a" opacity="1.00" d=" M 13.68 0.53 C 18.25 0.53 22.81 0.52 27.37 0.53 C 27.52 8.15 27.54 15.78 27.26 23.39 C 24.97 21.35 22.79 19.20 20.64 17.01 C 18.36 19.17 16.06 21.31 13.71 23.39 C 13.53 15.77 13.61 8.15 13.68 0.53 Z" />
</g>
<g id="#be4c36db">
<path fill="#be4c36" opacity="0.86" d=" M 64.99 11.94 C 65.07 8.38 64.41 4.62 66.00 1.27 L 66.00 63.14 L 65.43 63.15 C 65.18 61.43 64.99 59.72 64.97 57.99 C 65.01 42.64 64.99 27.29 64.99 11.94 Z" />
</g>
<g id="#c6c8caff">
<path fill="#c6c8ca" opacity="1.00" d=" M 0.50 66.87 C 2.07 64.17 4.97 62.86 8.03 63.27 C 27.16 63.27 46.30 63.52 65.43 63.15 L 66.00 63.14 L 66.00 63.74 C 64.84 65.23 65.13 67.27 64.97 69.04 C 65.03 71.75 64.48 74.69 66.00 77.13 L 66.00 77.74 C 45.17 78.42 24.30 77.73 3.45 78.09 C -0.47 75.69 0.34 70.77 0.50 66.87 Z" />
</g>
<g id="#b0b2b5db">
<path fill="#b0b2b5" opacity="0.86" d=" M 64.97 69.04 C 65.13 67.27 64.84 65.23 66.00 63.74 L 66.00 77.13 C 64.48 74.69 65.03 71.75 64.97 69.04 Z" />
</g>
<g id="#7374758e">
<path fill="#737475" opacity="0.56" d=" M 3.45 78.09 C 24.30 77.73 45.17 78.42 66.00 77.74 L 66.00 79.00 L 4.83 79.00 L 3.45 78.09 Z" />
</g>
</svg>
