<?xml version="1.0" encoding="UTF-8" ?>
<!DOCTYPE svg PUBLIC "-//W3C//DTD SVG 1.1//EN" "http://www.w3.org/Graphics/SVG/1.1/DTD/svg11.dtd">
<svg width="84pt" height="81pt" viewBox="0 0 84 81" version="1.1" xmlns="http://www.w3.org/2000/svg">
<g id="#f8cd53ff">
<path fill="#f8cd53" opacity="1.00" d=" M 28.24 0.00 L 77.50 0.00 C 80.97 0.07 83.16 3.15 84.00 6.20 L 84.00 36.22 C 84.80 39.92 83.35 44.22 80.13 46.22 C 77.88 47.03 75.41 46.61 73.07 46.73 C 73.08 53.72 73.00 60.71 73.13 67.70 C 69.27 63.32 65.25 59.07 61.48 54.60 C 58.98 51.99 56.92 48.87 53.98 46.73 C 45.35 46.41 36.69 46.89 28.05 46.57 C 24.83 46.51 22.90 43.01 23.15 40.09 C 23.15 31.26 23.21 22.44 23.15 13.62 C 23.15 10.77 22.98 7.90 23.20 5.05 C 23.44 2.40 25.74 0.48 28.24 0.00 Z" />
</g>
<g id="#5079bcff">
<path fill="#5079bc" opacity="1.00" d=" M 0.00 23.91 C 0.01 20.29 1.30 13.92 6.07 13.75 C 11.75 13.38 17.46 13.71 23.15 13.62 C 23.21 22.44 23.15 31.26 23.15 40.09 C 22.90 43.01 24.83 46.51 28.05 46.57 C 36.69 46.89 45.35 46.41 53.98 46.73 C 56.92 48.87 58.98 51.99 61.48 54.60 C 60.77 57.25 59.03 59.97 56.01 60.14 C 47.36 60.39 38.69 60.23 30.03 60.19 C 23.97 67.17 17.31 73.67 11.66 81.00 L 11.22 81.00 C 11.61 74.08 11.38 67.15 11.40 60.22 C 8.84 60.13 6.01 60.69 3.71 59.26 C 2.28 57.97 1.21 56.34 0.00 54.85 L 0.00 23.91 Z" />
</g>
</svg>
